<?xml version="1.0" encoding="UTF-8"?>
<!DOCTYPE svg PUBLIC "-//W3C//DTD SVG 1.1//EN" "http://www.w3.org/Graphics/SVG/1.1/DTD/svg11.dtd">
<!-- Creator: CorelDRAW 2021 (64 Bit) -->
<svg xmlns="http://www.w3.org/2000/svg" xml:space="preserve" width="29.416mm" height="33.6598mm" version="1.1" style="shape-rendering:geometricPrecision; text-rendering:geometricPrecision; image-rendering:optimizeQuality; fill-rule:evenodd; clip-rule:evenodd"
viewBox="0 0 2941.6 3365.98"
 xmlns:xlink="http://www.w3.org/1999/xlink"
 xmlns:xodm="http://www.corel.com/coreldraw/odm/2003">
 <defs>
  <style type="text/css">
   <![CDATA[
    .fil0 {fill:#E6A63A;fill-rule:nonzero}
    .fil3 {fill:#EBECEC;fill-rule:nonzero}
    .fil1 {fill:#F2C035;fill-rule:nonzero}
    .fil2 {fill:#FEFEFE;fill-rule:nonzero}
   ]]>
  </style>
 </defs>
 <g id="_23Layer_x0020_1">
  <metadata id="CorelCorpID_0Corel-Layer"/>
  <g id="_2129015275920">
   <polygon class="fil0" points="2890.02,76.85 1469.2,76.85 48.37,76.85 314.64,2965.57 1469.2,3292.88 2623.33,2965.57 "/>
   <polygon class="fil1" points="1469.2,312.16 1469.2,3048.25 2404.12,2783.22 2631.81,312.16 "/>
   <polygon class="fil2" points="2213.02,666.63 775,666.63 675.05,1748.24 677.17,1741.46 1898.69,1741.46 1858.83,2198.96 1469.2,2311.31 1073.6,2197.28 1049.86,1920.4 690.73,1920.4 742.04,2473.71 1469.2,2680.21 2196.35,2473.71 2296.43,1387.85 1000.25,1387.85 1016.77,1025.76 1916.43,1025.76 1929.66,1233 2292.02,1233 "/>
   <path class="fil3" d="M1469.2 666.63l-694.2 0 -99.95 1081.61 2.12 -6.78 792.03 0 0 -353.61 -418.94 0 16.52 -362.09 402.42 0 0 -359.13zm-419.34 1253.77l0 0 -359.13 0 51.31 553.31 727.16 206.05 0 -368.45 -395.6 -114.03 -23.74 -276.88z"/>
  </g>
 </g>
</svg>
