<?xml version="1.0" encoding="UTF-8"?>
<!DOCTYPE svg PUBLIC "-//W3C//DTD SVG 1.1//EN" "http://www.w3.org/Graphics/SVG/1.1/DTD/svg11.dtd">
<!-- Creator: CorelDRAW 2021 (64 Bit) -->
<svg xmlns="http://www.w3.org/2000/svg" xml:space="preserve" width="176.125mm" height="215mm" version="1.1" style="shape-rendering:geometricPrecision; text-rendering:geometricPrecision; image-rendering:optimizeQuality; fill-rule:evenodd; clip-rule:evenodd"
viewBox="0 0 17612.5 21500"
 xmlns:xlink="http://www.w3.org/1999/xlink"
 xmlns:xodm="http://www.corel.com/coreldraw/odm/2003">
 <defs>
  <style type="text/css">
   <![CDATA[
    .fil0 {fill:#061E26;fill-rule:nonzero}
    .fil1 {fill:#26C9FF;fill-rule:nonzero}
   ]]>
  </style>
 </defs>
 <g id="Camada_x0020_1_0">
  <metadata id="CorelCorpID_0Corel-Layer"/>
  <g id="_2366485506352">
   <path class="fil0" d="M2236.62 20922.41c-904.31,0 -1640.63,-735.66 -1640.63,-1640.63l0 -17062.5c0,-904.31 736.31,-1640.63 1640.63,-1640.63l10093.13 0c349.78,0 678.56,135.84 925.97,382.59l3360 3348.19c245.43,244.79 386.53,583.41 386.53,929.91l0 14042.44c0,904.97 -735.66,1640.63 -1640.63,1640.63l-13125 0z"/>
   <g>
    <path class="fil1" d="M12329.75 906.78c260.53,0 510.56,103.03 694.97,286.78l3360 3348.19c185.06,185.06 289.4,435.75 289.4,697.59l0 14042.44c0,725.16 -587.34,1312.5 -1312.5,1312.5l-13125 0c-725.16,0 -1312.5,-587.34 -1312.5,-1312.5l0 -17062.5c0,-725.16 587.34,-1312.5 1312.5,-1312.5l10093.13 0 0 0zm0 -656.25l-10093.13 0c-1085.44,0 -1968.75,883.31 -1968.75,1968.75l0 17062.5c0,1085.44 883.31,1968.75 1968.75,1968.75l13125 0c1085.44,0 1968.75,-883.31 1968.75,-1968.75l0 -14042.44c0,-433.13 -175.88,-856.41 -482.34,-1162.22l-3360 -3348.19c-309.75,-308.43 -721.22,-478.4 -1158.28,-478.4l0 0z"/>
   </g>
  </g>
  <g id="_2131813242096">
   <g id="_2366485505728">
    <path class="fil1" d="M3988.39 6573.56c0,-25.38 3.18,-47.6 14.27,-63.46 11.1,-15.85 30.15,-25.38 61.88,-25.38 247.47,-12.69 552.06,-22.21 890.76,-28.56 338.69,-6.35 709.12,-9.52 1090.64,-9.52 1066.05,0 1831.49,291.89 2329.62,770.99 498.13,479.1 729.74,1146.17 729.74,1894.94 0,978.02 -352.18,1676.03 -921.69,2129.73 -569.51,453.71 -1357.15,663.12 -2226.5,663.12 -145.95,0 -244.31,-3.18 -331.55,-6.34 -87.24,-3.17 -163.4,-6.35 -264.93,-6.35l0 1479.32 0 1479.31c0,31.73 -6.35,53.95 -20.62,68.22 -14.28,14.28 -36.49,20.62 -68.22,20.62l-596.49 -0.01 -596.49 0c-31.73,0 -53.94,-6.35 -68.22,-20.62 -14.27,-14.27 -20.62,-36.49 -20.62,-68.22l0 -4138.89 0 -4138.9 -1.58 0zm1371.43 4088.13c88.84,6.35 168.16,9.53 263.35,11.11 95.18,1.58 206.23,1.58 358.53,1.58 450.53,0 886,-79.32 1208.04,-310.93 322.04,-231.61 531.44,-615.52 531.44,-1225.49 0,-488.61 -149.13,-856.66 -426.74,-1103.34 -277.6,-246.68 -683.73,-369.62 -1198.51,-369.62 -152.29,0 -301.42,3.18 -429.92,7.93 -128.49,4.75 -236.37,11.1 -306.17,17.45l0 1485.66 -0.02 1485.65z"/>
    <path class="fil1" d="M11883.07 9747.13c-304.59,0 -507.65,76.15 -634.56,184.02 -126.91,107.88 -177.68,247.48 -177.68,374.39 0,139.6 34.91,257 171.33,391.84 136.43,134.84 374.39,287.14 780.51,496.54 602.83,291.9 999.43,577.45 1246.11,893.14 246.68,315.7 341.08,661.53 341.08,1074.79 0,615.52 -234.79,1088.27 -628.21,1407.92 -393.43,319.64 -946.29,484.64 -1580.85,484.64 -336.31,0 -647.24,-34.91 -915.34,-93.6 -268.1,-58.69 -493.37,-141.19 -658.36,-237.17 -25.38,-12.69 -41.25,-28.56 -50.76,-49.18 -9.52,-20.62 -12.69,-46 -12.69,-77.73l0 -564.75 0 -564.76c0,-38.07 9.52,-63.46 25.38,-74.56 15.86,-11.11 38.07,-7.93 62.66,11.1 241.13,158.64 501.3,272.86 764.64,347.43 263.35,74.56 529.86,109.45 784.47,109.45 304.59,0 520.34,-63.45 660.74,-169.74 140.4,-106.29 203.06,-255.41 203.06,-426.74 0,-139.6 -44.42,-269.69 -185.61,-415.64 -141.18,-145.95 -379.93,-307.77 -767.01,-510.82 -545.72,-260.17 -932.8,-523.52 -1183.46,-832.86 -250.65,-309.34 -364.87,-664.7 -364.87,-1109.68 0,-494.95 193.54,-948.66 555.24,-1278.63 361.7,-329.97 891.56,-536.21 1564.97,-536.21 329.97,0 609.18,25.38 837.62,65.04 228.44,39.66 406.12,93.6 533.03,150.71 31.73,19.04 50.76,44.42 61.87,71.38 11.11,26.97 14.27,55.53 14.27,80.91l0 526.68 0 526.69c0,31.73 -9.52,57.11 -28.56,71.38 -19.03,14.28 -47.59,17.46 -85.67,4.76 -171.33,-101.52 -380.73,-184.02 -609.97,-241.13 -229.24,-57.11 -475.91,-89.61 -723.38,-89.61z"/>
   </g>
  </g>
  <g id="_2131813242384">
  </g>
  <g id="_2131813240704">
  </g>
  <g id="_2131813240512">
  </g>
  <g id="_2131813238544">
  </g>
  <g id="_2131813240944">
  </g>
  <g id="_2131813239360">
  </g>
 </g>
</svg>
