<?xml version="1.0" encoding="UTF-8"?>
<!DOCTYPE svg PUBLIC "-//W3C//DTD SVG 1.1//EN" "http://www.w3.org/Graphics/SVG/1.1/DTD/svg11.dtd">
<!-- Creator: CorelDRAW 2021 (64 Bit) -->
<svg xmlns="http://www.w3.org/2000/svg" xml:space="preserve" width="210mm" height="297mm" version="1.1" style="shape-rendering:geometricPrecision; text-rendering:geometricPrecision; image-rendering:optimizeQuality; fill-rule:evenodd; clip-rule:evenodd"
viewBox="0 0 21000 29700"
 xmlns:xlink="http://www.w3.org/1999/xlink"
 xmlns:xodm="http://www.corel.com/coreldraw/odm/2003">
 <defs>
  <style type="text/css">
   <![CDATA[
    .fil1 {fill:none}
    .fil0 {fill:white}
    .fil2 {fill:black;fill-rule:nonzero}
   ]]>
  </style>
 </defs>
 <g id="Camada_x0020_1">
  <metadata id="CorelCorpID_0Corel-Layer"/>
  <g id="_2368000750400">
   <ellipse class="fil0" cx="10492.88" cy="14850.53" rx="8125.4" ry="7931.3"/>
   <g id="GitHub_font_awesome.svg">
    <g>
     <rect class="fil1" x="31.76" y="4467.19" width="20922.22" height="20766.67"/>
     <path class="fil2" d="M6292.87 7422.75c1283.33,-738.89 2683.33,-1127.78 4200,-1127.78 1516.67,0 2916.67,388.89 4200,1127.78 1283.33,738.89 2294.44,1750 3033.33,3033.33 738.89,1283.33 1127.78,2683.33 1127.78,4200 0,1827.78 -544.44,3461.11 -1594.44,4900 -1050,1438.89 -2411.11,2450 -4122.22,2994.44 -194.44,38.89 -350,0 -427.78,-77.78 -77.78,-77.78 -155.56,-194.44 -155.56,-311.11 0,-38.89 0,-311.11 0,-816.67 0,-505.56 0,-1011.11 0,-1477.78 0,-700 -194.44,-1205.56 -583.33,-1555.56 427.78,-38.89 777.78,-116.67 1127.78,-194.44 311.11,-77.78 661.11,-233.33 1011.11,-427.78 350,-194.44 661.11,-427.78 894.44,-738.89 233.33,-272.22 427.78,-661.11 583.33,-1127.78 155.55,-466.67 233.33,-1011.11 233.33,-1633.33 0,-855.56 -272.22,-1594.44 -855.56,-2216.67 272.22,-661.11 233.33,-1400 -77.78,-2216.67 -194.44,-77.78 -505.56,-38.89 -894.44,116.67 -388.89,155.56 -700,311.11 -1011.11,466.67l-427.77 272.24c-661.11,-194.44 -1361.11,-272.22 -2100,-272.22 -700,0 -1400,77.78 -2100,272.22 -116.67,-77.78 -272.22,-194.44 -466.67,-311.11 -194.44,-116.67 -505.56,-272.22 -894.44,-427.78 -427.78,-155.56 -738.89,-194.44 -933.33,-155.56 -311.11,816.67 -350,1555.56 -77.78,2216.67 -544.44,661.12 -816.66,1400.01 -816.66,2255.56 0,622.22 77.78,1166.67 233.33,1633.33 155.56,466.67 350,855.56 583.33,1127.78 233.33,272.22 505.56,544.44 855.56,738.89 350,194.44 700,350 1011.11,427.78 311.11,77.78 700,155.56 1127.78,194.44 -272.22,272.22 -466.67,622.22 -544.44,1127.78 -155.56,77.78 -311.11,116.67 -505.56,155.56 -155.56,38.89 -388.89,38.89 -622.22,38.89 -233.33,0 -466.67,-77.78 -700,-233.33 -233.33,-155.56 -427.78,-388.89 -583.33,-661.11 -155.56,-233.33 -311.11,-427.78 -544.44,-583.33 -194.44,-155.56 -388.89,-233.33 -544.44,-272.22l-233.33 -38.89c-155.56,0 -272.22,0 -311.11,38.89 -38.89,38.89 -77.78,77.78 -38.89,116.67 38.89,38.89 38.89,116.67 116.67,155.56 38.89,38.89 77.78,77.78 155.56,116.67l77.78 38.89c155.56,77.78 311.11,194.44 466.67,427.78 155.56,194.44 272.22,388.89 350,544.44l116.67 233.33c77.78,272.22 272.22,505.56 466.67,661.11 233.33,155.56 466.67,272.22 738.89,311.11 272.22,38.89 505.56,77.78 738.89,77.78 233.33,0 427.78,0 583.33,-38.89l233.33 -38.89c0,272.22 0,583.33 0,972.22 0,350 0,544.44 0,583.33 0,116.67 -38.89,233.33 -155.56,311.11 -77.78,77.78 -233.33,116.67 -427.78,77.78 -1672.22,-544.44 -3033.33,-1555.56 -4122.22,-2994.44 -1088.89,-1438.88 -1594.44,-3072.22 -1594.44,-4900 0,-1516.67 388.89,-2916.67 1127.78,-4200 777.74,-1166.69 1788.85,-2177.8 3072.18,-2916.69zm-1011.11 10850c38.89,-38.89 0,-77.78 -77.78,-116.67 -77.78,-38.89 -116.67,0 -155.56,38.89 -38.89,38.89 0,77.78 77.78,116.67 77.78,38.89 155.56,38.89 155.56,-38.89zm350 388.89c38.89,-38.89 38.89,-77.78 -38.89,-155.56 -77.78,-77.78 -116.67,-77.78 -155.56,-38.89 -38.89,38.89 -38.89,77.78 38.89,155.56 38.9,77.78 116.67,77.78 155.56,38.89zm311.11 466.67c77.78,-38.89 77.78,-116.67 0,-194.44 -38.89,-77.78 -116.67,-116.67 -194.44,-77.78 -77.78,38.89 -77.78,116.67 0,194.44 77.78,77.77 155.55,116.67 194.44,77.78zm466.67 466.67c38.89,-38.89 38.89,-116.67 -38.89,-194.44 -77.78,-77.78 -155.56,-116.67 -233.33,-38.89 -77.78,38.89 -38.89,116.67 38.89,194.44 116.66,77.78 194.44,77.78 233.33,38.89zm622.22 272.22c38.89,-77.78 -38.89,-155.56 -155.56,-155.56 -116.67,-38.89 -194.44,0 -194.44,77.78 -38.89,77.78 0,116.67 155.56,155.56 77.78,38.89 155.55,0 194.44,-77.78zm700 38.89c0,-77.78 -77.78,-116.67 -194.44,-116.67 -116.67,0 -155.56,38.89 -155.56,116.67 0,77.78 77.78,116.67 194.44,116.67 77.78,-0.01 155.56,-38.89 155.56,-116.67zm622.22 -116.67c0,-77.78 -77.78,-116.67 -194.44,-116.67 -116.67,38.89 -155.56,77.78 -155.56,155.56 0,77.78 77.78,116.67 194.44,77.78 116.68,38.89 155.56,-38.89 155.56,-116.67z"/>
    </g>
   </g>
  </g>
 </g>
</svg>
