<?xml version="1.0" encoding="UTF-8"?>
<!DOCTYPE svg PUBLIC "-//W3C//DTD SVG 1.1//EN" "http://www.w3.org/Graphics/SVG/1.1/DTD/svg11.dtd">
<!-- Creator: CorelDRAW 2021 (64 Bit) -->
<svg xmlns="http://www.w3.org/2000/svg" xml:space="preserve" width="177mm" height="177mm" version="1.1" style="shape-rendering:geometricPrecision; text-rendering:geometricPrecision; image-rendering:optimizeQuality; fill-rule:evenodd; clip-rule:evenodd"
viewBox="0 0 17700 17700"
 xmlns:xlink="http://www.w3.org/1999/xlink"
 xmlns:xodm="http://www.corel.com/coreldraw/odm/2003">
 <defs>
  <style type="text/css">
   <![CDATA[
    .fil0 {fill:white}
    .fil1 {fill:#F05133;fill-rule:nonzero}
   ]]>
  </style>
 </defs>
 <g id="Camada_x0020_1">
  <metadata id="CorelCorpID_0Corel-Layer"/>
  <g id="_2367912490384">
   <path class="fil0" d="M481.43 8061.64l7557.45 -7566.93c441.34,-441.89 1227.55,-372.48 1755.71,155.01l7254.53 7245.42c528.14,527.49 598.54,1313.62 157.2,1755.51l-7557.44 7566.94c-441.34,441.88 -1227.56,372.47 -1755.7,-155.02l-7254.54 -7245.41c-528.14,-527.5 -598.53,-1313.63 -157.2,-1755.52z"/>
   <path id="Git_icon.svg" class="fil1" d="M17215.64 8081.06l-7596.89 -7596.69c-437.43,-437.66 -1146.97,-437.66 -1584.75,0l-1577.38 1577.77 2000.99 2001.03c465.06,-157.17 998.32,-51.67 1368.9,319.06 372.87,373.03 477.36,910.81 316.26,1377.59l1928.78 1928.68c466.78,-160.97 1004.9,-56.83 1377.56,316.41 520.74,520.74 520.74,1364.56 0,1885.66 -521.09,520.96 -1364.89,520.96 -1886.2,0 -391.62,-391.99 -488.52,-967.63 -289.92,-1450.16l-1798.88 -1798.77 0 4733.52c126.89,62.83 246.76,146.57 352.4,252.21 520.74,520.75 520.74,1364.56 0,1885.88 -520.73,520.53 -1365.1,520.53 -1885.48,0 -520.74,-521.53 -520.74,-1365.28 0,-1885.88 128.75,-128.61 277.76,-225.88 436.85,-291.08l0 -4777.6c-159.09,-65.13 -307.67,-161.54 -436.85,-291.08 -394.42,-394.28 -489.32,-973.36 -287.06,-1457.75l-1972.59 -1972.83 -5209.28 5208.82c-437.64,438.01 -437.64,1147.56 0,1585.14l7597.25 7596.9c437.43,437.66 1146.75,437.66 1584.75,0l7561.54 -7561.62c437.64,-437.65 437.64,-1147.56 0,-1585.14l0 -0.07z"/>
  </g>
 </g>
</svg>
